<svg width="459" height="459" xmlns="http://www.w3.org/2000/svg">
 <defs>
  <filter height="200%" width="200%" y="-50%" x="-50%" id="svg_18_blur">
   <feGaussianBlur stdDeviation="10" in="SourceGraphic"/>
  </filter>
 </defs>
 <g>
  <title>Layer 1</title>
  <rect stroke="#FABA6F" filter="url(#svg_18_blur)" id="svg_18" height="277" width="279.99998" y="90" x="89.5" opacity="undefined" fill-opacity="null" stroke-opacity="null" stroke-dasharray="null" stroke-width="83" fill="none"/>
  <g id="svg_1">
   <g id="check-box-outline">
    <path id="svg_2" d="m124.95,181.05l-35.7,35.7l114.75,114.75l255,-255l-35.7,-35.7l-219.3,219.3l-79.05,-79.05zm283.05,226.95l-357,0l0,-357l255,0l0,-51l-255,0c-28.05,0 -51,22.95 -51,51l0,357c0,28.05 22.95,51 51,51l357,0c28.05,0 51,-22.95 51,-51l0,-204l-51,0l0,204z"/>
   </g>
  </g>
  <g id="svg_3"/>
  <g id="svg_4"/>
  <g id="svg_5"/>
  <g id="svg_6"/>
  <g id="svg_7"/>
  <g id="svg_8"/>
  <g id="svg_9"/>
  <g id="svg_10"/>
  <g id="svg_11"/>
  <g id="svg_12"/>
  <g id="svg_13"/>
  <g id="svg_14"/>
  <g id="svg_15"/>
  <g id="svg_16"/>
  <g id="svg_17"/>
 </g>
</svg>